<svg width="492" height="89" viewBox="0 0 492 89" fill="none" xmlns="http://www.w3.org/2000/svg">
<path d="M37.6523 16.7031H57.9023V26.3711H53.5781V70H41.9062L19.7227 35.5469V60.3672H24.1875V70H3.97266V60.3672H8.36719V26.3711H4.04297V16.7031H20.1445L42.1875 51.6133V26.3711H37.6523V16.7031ZM61.7695 15.2969H78.1875V46.832H84.3398L86.8711 43.2109V33.5781H105.715V43.2109H99.1758L92.3906 51.0508L99.3164 59.418H105.363V70H95.4844L83.6719 54.3906H78.1875V60.3672H81.9141V70H61.7695V60.3672H67.3945V24.9297H61.7695V15.2969ZM113.203 51.6484C113.203 49 113.684 46.5156 114.645 44.1953C115.605 41.875 116.941 39.8477 118.652 38.1133C120.363 36.3789 122.402 35.0078 124.77 34C127.137 32.9922 129.738 32.4883 132.574 32.4883C135.41 32.4883 138.012 32.9922 140.379 34C142.77 35.0078 144.82 36.3789 146.531 38.1133C148.242 39.8477 149.566 41.875 150.504 44.1953C151.465 46.5156 151.945 49 151.945 51.6484C151.945 54.2969 151.477 56.793 150.539 59.1367C149.625 61.457 148.312 63.4961 146.602 65.2539C144.914 66.9883 142.875 68.3594 140.484 69.3672C138.117 70.375 135.48 70.8789 132.574 70.8789C129.645 70.8789 126.984 70.375 124.594 69.3672C122.227 68.3594 120.199 66.9883 118.512 65.2539C116.824 63.5195 115.512 61.4922 114.574 59.1719C113.66 56.8281 113.203 54.3203 113.203 51.6484ZM123.715 51.6484C123.715 53.0312 123.949 54.3086 124.418 55.4805C124.887 56.6289 125.52 57.625 126.316 58.4688C127.137 59.3125 128.074 59.9688 129.129 60.4375C130.207 60.9062 131.355 61.1406 132.574 61.1406C133.816 61.1406 134.965 60.918 136.02 60.4727C137.098 60.0039 138.023 59.3477 138.797 58.5039C139.594 57.6602 140.215 56.6641 140.66 55.5156C141.105 54.3438 141.328 53.0547 141.328 51.6484C141.328 50.1953 141.105 48.8828 140.66 47.7109C140.215 46.5391 139.594 45.543 138.797 44.7227C138.023 43.9023 137.098 43.2812 136.02 42.8594C134.965 42.4141 133.816 42.2031 132.574 42.2266C131.355 42.2031 130.207 42.4141 129.129 42.8594C128.074 43.2812 127.137 43.9023 126.316 44.7227C125.52 45.543 124.887 46.5391 124.418 47.7109C123.949 48.8828 123.715 50.1953 123.715 51.6484ZM155.918 33.5781H174.938V43.2109H170.824L174.691 56.1836L182.18 33.5781H192.48L200.039 57.3438L204.68 43.2109H200.777V33.5781H219.797V43.2109H214.91L205.172 70.1406H194.66L187.031 46.9023L179.262 70.1406H169.031L159.996 43.2109H155.918V33.5781ZM246.41 68.0312C245.59 68.5469 244.84 68.9922 244.16 69.3672C243.48 69.7188 242.801 70 242.121 70.2109C241.441 70.4453 240.738 70.6094 240.012 70.7031C239.285 70.8203 238.488 70.8789 237.621 70.8789C235.441 70.8789 233.484 70.5859 231.75 70C230.039 69.3906 228.586 68.5703 227.391 67.5391C226.219 66.4844 225.316 65.2539 224.684 63.8477C224.051 62.418 223.734 60.8711 223.734 59.207C223.734 57.5195 224.051 55.9609 224.684 54.5312C225.34 53.1016 226.277 51.8828 227.496 50.875C228.715 49.8438 230.203 49.0469 231.961 48.4844C233.742 47.8984 235.77 47.6055 238.043 47.6055C239.707 47.6055 241.219 47.6992 242.578 47.8867C243.961 48.0508 245.238 48.2617 246.41 48.5195V47.3945C246.41 46.4805 246.234 45.6953 245.883 45.0391C245.531 44.3594 245.039 43.8086 244.406 43.3867C243.773 42.9414 243.012 42.625 242.121 42.4375C241.23 42.2266 240.258 42.1211 239.203 42.1211C237 42.1211 235.055 42.3438 233.367 42.7891C231.703 43.2109 230.098 43.832 228.551 44.6523L225.176 37.832C227.566 36.1914 230.062 34.9375 232.664 34.0703C235.289 33.2031 238.066 32.7695 240.996 32.7695C243.27 32.7695 245.367 33.0273 247.289 33.543C249.234 34.0352 250.898 34.8555 252.281 36.0039C253.664 37.1289 254.742 38.6055 255.516 40.4336C256.312 42.2617 256.711 44.4883 256.711 47.1133V60.3672H261.598V70H246.41V68.0312ZM238.395 62.582C240.059 62.582 241.57 62.3125 242.93 61.7734C244.289 61.2344 245.449 60.5781 246.41 59.8047V55.1641H237.973C237.434 55.1641 236.906 55.2461 236.391 55.4102C235.875 55.5742 235.406 55.8086 234.984 56.1133C234.586 56.418 234.258 56.793 234 57.2383C233.766 57.6836 233.648 58.1992 233.648 58.7852C233.648 59.8633 234.035 60.7656 234.809 61.4922C235.605 62.2188 236.801 62.582 238.395 62.582ZM283.148 51.6484C283.148 49 283.629 46.5156 284.59 44.1953C285.551 41.875 286.887 39.8477 288.598 38.1133C290.309 36.3789 292.348 35.0078 294.715 34C297.082 32.9922 299.684 32.4883 302.52 32.4883C305.355 32.4883 307.957 32.9922 310.324 34C312.715 35.0078 314.766 36.3789 316.477 38.1133C318.188 39.8477 319.512 41.875 320.449 44.1953C321.41 46.5156 321.891 49 321.891 51.6484C321.891 54.2969 321.422 56.793 320.484 59.1367C319.57 61.457 318.258 63.4961 316.547 65.2539C314.859 66.9883 312.82 68.3594 310.43 69.3672C308.062 70.375 305.426 70.8789 302.52 70.8789C299.59 70.8789 296.93 70.375 294.539 69.3672C292.172 68.3594 290.145 66.9883 288.457 65.2539C286.77 63.5195 285.457 61.4922 284.52 59.1719C283.605 56.8281 283.148 54.3203 283.148 51.6484ZM293.66 51.6484C293.66 53.0312 293.895 54.3086 294.363 55.4805C294.832 56.6289 295.465 57.625 296.262 58.4688C297.082 59.3125 298.02 59.9688 299.074 60.4375C300.152 60.9062 301.301 61.1406 302.52 61.1406C303.762 61.1406 304.91 60.918 305.965 60.4727C307.043 60.0039 307.969 59.3477 308.742 58.5039C309.539 57.6602 310.16 56.6641 310.605 55.5156C311.051 54.3438 311.273 53.0547 311.273 51.6484C311.273 50.1953 311.051 48.8828 310.605 47.7109C310.16 46.5391 309.539 45.543 308.742 44.7227C307.969 43.9023 307.043 43.2812 305.965 42.8594C304.91 42.4141 303.762 42.2031 302.52 42.2266C301.301 42.2031 300.152 42.4141 299.074 42.8594C298.02 43.2812 297.082 43.9023 296.262 44.7227C295.465 45.543 294.832 46.5391 294.363 47.7109C293.895 48.8828 293.66 50.1953 293.66 51.6484ZM326.496 15.2969H342.914V46.832H349.066L351.598 43.2109V33.5781H370.441V43.2109H363.902L357.117 51.0508L364.043 59.418H370.09V70H360.211L348.398 54.3906H342.914V60.3672H346.641V70H326.496V60.3672H332.121V24.9297H326.496V15.2969ZM376.84 33.5781H395.859V43.2109H391.746L395.613 56.1836L403.102 33.5781H413.402L420.961 57.3438L425.602 43.2109H421.699V33.5781H440.719V43.2109H435.832L426.094 70.1406H415.582L407.953 46.9023L400.184 70.1406H389.953L380.918 43.2109H376.84V33.5781ZM467.543 33.5781H484.77V60.3672H489.164V70H473.73V66.9062C472.488 68.0312 471.035 68.8984 469.371 69.5078C467.707 70.1172 465.785 70.4219 463.605 70.4219C461.59 70.4219 459.691 70.1055 457.91 69.4727C456.129 68.8398 454.57 67.8906 453.234 66.625C451.922 65.3359 450.879 63.7305 450.105 61.8086C449.355 59.8867 448.98 57.625 448.98 55.0234V43.2109H444.234V33.5781H460.336V55.0234C460.336 57.4609 460.957 59.2891 462.199 60.5078C463.441 61.7031 465.059 62.3008 467.051 62.3008C468.457 62.3008 469.734 61.8672 470.883 61C472.031 60.1328 472.863 58.9609 473.379 57.4844V43.2109H467.543V33.5781Z" fill="#2D3848"/>
<rect x="298" y="75" width="10" height="10" fill="#2D3848"/>
</svg>
