<svg width="106" height="29" viewBox="0 0 106 29" fill="none" xmlns="http://www.w3.org/2000/svg">
<path d="M4.34 21.17C4.34 21.69 4.17 22.13 3.83 22.49C3.49 22.83 3.06 23 2.54 23C2.02 23 1.59 22.83 1.25 22.49C0.91 22.13 0.74 21.69 0.74 21.17V8.78C0.74 8.26 0.91 7.83 1.25 7.49C1.59 7.13 2.02 6.95 2.54 6.95C3.06 6.95 3.49 7.13 3.83 7.49C4.17 7.83 4.34 8.26 4.34 8.78V21.17ZM2.51 5C1.83 5 1.35 4.89 1.07 4.67C0.79 4.45 0.65 4.06 0.65 3.5V2.93C0.65 2.37 0.8 1.98 1.1 1.76C1.4 1.54 1.88 1.43 2.54 1.43C3.24 1.43 3.73 1.54 4.01 1.76C4.29 1.98 4.43 2.37 4.43 2.93V3.5C4.43 4.08 4.28 4.48 3.98 4.7C3.7 4.9 3.21 5 2.51 5ZM21.3298 6.65C21.8498 6.65 22.2798 6.82 22.6198 7.16C22.9598 7.5 23.1298 7.94 23.1298 8.48V21.83C23.1298 24.27 22.3698 26.07 20.8498 27.23C19.3498 28.41 17.4398 29 15.1198 29C14.5198 29 13.6898 28.9 12.6298 28.7C11.5898 28.5 10.8498 28.3 10.4098 28.1C9.42984 27.68 8.93984 27.1 8.93984 26.36C8.93984 26.22 8.96984 26.06 9.02984 25.88C9.14984 25.44 9.34984 25.1 9.62984 24.86C9.92984 24.64 10.2498 24.53 10.5898 24.53C10.7898 24.53 10.9798 24.56 11.1598 24.62C11.2398 24.64 11.7298 24.82 12.6298 25.16C13.5498 25.52 14.3798 25.7 15.1198 25.7C16.5998 25.7 17.6998 25.4 18.4198 24.8C19.1598 24.22 19.5298 23.39 19.5298 22.31V20.87C19.0898 21.49 18.4198 22.05 17.5198 22.55C16.6398 23.05 15.6898 23.3 14.6698 23.3C13.2698 23.3 11.9898 22.95 10.8298 22.25C9.68984 21.53 8.78984 20.54 8.12984 19.28C7.46984 18.02 7.13984 16.59 7.13984 14.99C7.13984 13.39 7.45984 11.96 8.09984 10.7C8.75984 9.42 9.64984 8.43 10.7698 7.73C11.9098 7.01 13.1698 6.65 14.5498 6.65C15.5698 6.65 16.5198 6.86 17.3998 7.28C18.2798 7.7 18.9898 8.21 19.5298 8.81V8.48C19.5298 7.96 19.6998 7.53 20.0398 7.19C20.3798 6.83 20.8098 6.65 21.3298 6.65ZM15.1198 20C16.4598 20 17.5498 19.53 18.3898 18.59C19.2498 17.63 19.6798 16.43 19.6798 14.99C19.6798 13.55 19.2498 12.35 18.3898 11.39C17.5498 10.43 16.4598 9.95 15.1198 9.95C13.7798 9.95 12.6898 10.43 11.8498 11.39C11.0098 12.35 10.5898 13.55 10.5898 14.99C10.5898 16.43 11.0098 17.63 11.8498 18.59C12.6898 19.53 13.7798 20 15.1198 20ZM35.3342 6.65C36.7142 6.65 37.9642 7.01 39.0842 7.73C40.2042 8.43 41.0842 9.41 41.7242 10.67C42.3842 11.93 42.7142 13.36 42.7142 14.96C42.7142 16.56 42.3942 18 41.7542 19.28C41.1142 20.54 40.2342 21.53 39.1142 22.25C38.0142 22.95 36.7942 23.3 35.4542 23.3C34.4942 23.3 33.5842 23.11 32.7242 22.73C31.8842 22.33 31.1842 21.85 30.6242 21.29V21.47C30.6242 21.99 30.4542 22.43 30.1142 22.79C29.7742 23.13 29.3442 23.3 28.8242 23.3C28.3042 23.3 27.8742 23.13 27.5342 22.79C27.1942 22.45 27.0242 22.01 27.0242 21.47V2.63C27.0242 2.11 27.1942 1.68 27.5342 1.34C27.8742 0.979999 28.3042 0.8 28.8242 0.8C29.3442 0.8 29.7742 0.979999 30.1142 1.34C30.4542 1.68 30.6242 2.11 30.6242 2.63V8.9C31.1042 8.3 31.7742 7.78 32.6342 7.34C33.4942 6.88 34.3942 6.65 35.3342 6.65ZM34.8842 20C36.1642 20 37.2142 19.52 38.0342 18.56C38.8542 17.6 39.2642 16.4 39.2642 14.96C39.2642 13.52 38.8542 12.33 38.0342 11.39C37.2342 10.43 36.1842 9.95 34.8842 9.95C33.5842 9.95 32.5242 10.43 31.7042 11.39C30.8842 12.33 30.4742 13.52 30.4742 14.96C30.4742 16.4 30.8842 17.6 31.7042 18.56C32.5242 19.52 33.5842 20 34.8842 20ZM61.1356 14.99C61.1356 16.59 60.7756 18.03 60.0556 19.31C59.3356 20.57 58.3456 21.55 57.0856 22.25C55.8456 22.95 54.4756 23.3 52.9756 23.3C51.4556 23.3 50.0756 22.95 48.8356 22.25C47.5956 21.55 46.6156 20.57 45.8956 19.31C45.1756 18.03 44.8156 16.59 44.8156 14.99C44.8156 13.39 45.1756 11.96 45.8956 10.7C46.6156 9.42 47.5956 8.43 48.8356 7.73C50.0756 7.01 51.4556 6.65 52.9756 6.65C54.4756 6.65 55.8456 7.01 57.0856 7.73C58.3456 8.43 59.3356 9.42 60.0556 10.7C60.7756 11.96 61.1356 13.39 61.1356 14.99ZM57.5356 14.99C57.5356 14.01 57.3256 13.14 56.9056 12.38C56.5056 11.6 55.9556 11 55.2556 10.58C54.5756 10.16 53.8156 9.95 52.9756 9.95C52.1356 9.95 51.3656 10.16 50.6656 10.58C49.9856 11 49.4356 11.6 49.0156 12.38C48.6156 13.14 48.4156 14.01 48.4156 14.99C48.4156 15.97 48.6156 16.84 49.0156 17.6C49.4356 18.36 49.9856 18.95 50.6656 19.37C51.3656 19.79 52.1356 20 52.9756 20C53.8156 20 54.5756 19.79 55.2556 19.37C55.9556 18.95 56.5056 18.36 56.9056 17.6C57.3256 16.84 57.5356 15.97 57.5356 14.99Z" fill="url(#paint0_radial_447_0)"/>
<path d="M80.9134 20.66C81.0134 20.92 81.0634 21.16 81.0634 21.38C81.0634 21.9 80.8934 22.33 80.5534 22.67C80.2134 22.99 79.8234 23.15 79.3834 23.15C79.0234 23.15 78.6934 23.04 78.3934 22.82C78.1134 22.6 77.8934 22.3 77.7334 21.92L76.1734 18.29H67.2334L65.6734 21.95C65.5334 22.33 65.3134 22.63 65.0134 22.85C64.7334 23.05 64.4234 23.15 64.0834 23.15C63.5634 23.15 63.1634 23.01 62.8834 22.73C62.6234 22.45 62.4934 22.07 62.4934 21.59C62.4934 21.41 62.5234 21.22 62.5834 21.02L70.0534 3.08C70.2134 2.68 70.4534 2.37 70.7734 2.15C71.0934 1.93 71.4534 1.84 71.8534 1.88C72.2134 1.88 72.5434 1.99 72.8434 2.21C73.1634 2.41 73.3934 2.7 73.5334 3.08L80.9134 20.66ZM74.7034 14.84L71.6734 7.82L68.7034 14.84H74.7034ZM92.2735 2C93.2935 2 94.2635 2.31 95.1835 2.93C96.1035 3.53 96.8435 4.35 97.4035 5.39C97.9635 6.41 98.2435 7.53 98.2435 8.75C98.2435 9.95 97.9635 11.07 97.4035 12.11C96.8435 13.15 96.1035 13.98 95.1835 14.6C94.2635 15.2 93.2935 15.5 92.2735 15.5H87.0535V21.17C87.0535 21.71 86.8935 22.15 86.5735 22.49C86.2535 22.83 85.8335 23 85.3135 23C84.8135 23 84.4035 22.83 84.0835 22.49C83.7635 22.13 83.6035 21.69 83.6035 21.17V3.83C83.6035 3.31 83.7735 2.88 84.1135 2.54C84.4735 2.18 84.9135 2 85.4335 2H92.2735ZM92.2735 12.08C92.6535 12.08 93.0235 11.92 93.3835 11.6C93.7635 11.28 94.0635 10.87 94.2835 10.37C94.5235 9.85 94.6435 9.31 94.6435 8.75C94.6435 8.19 94.5235 7.66 94.2835 7.16C94.0635 6.64 93.7635 6.23 93.3835 5.93C93.0235 5.61 92.6535 5.45 92.2735 5.45H87.0535V12.08H92.2735ZM105.43 21.17C105.43 21.69 105.24 22.13 104.86 22.49C104.48 22.83 104.04 23 103.54 23C103 23 102.55 22.83 102.19 22.49C101.85 22.13 101.68 21.69 101.68 21.17V3.83C101.68 3.31 101.86 2.88 102.22 2.54C102.58 2.18 103.04 2 103.6 2C104.1 2 104.53 2.18 104.89 2.54C105.25 2.88 105.43 3.31 105.43 3.83V21.17Z" fill="black"/>
<defs>
<radialGradient id="paint0_radial_447_0" cx="0" cy="0" r="1" gradientUnits="userSpaceOnUse" gradientTransform="translate(53.5 12) rotate(90) scale(19 54.5)">
<stop stop-color="#7EEDAA"/>
<stop offset="1" stop-color="#14813F" stop-opacity="0.53"/>
</radialGradient>
</defs>
</svg>
