<svg width="183" height="32" viewBox="0 0 183 32" fill="#353535" xmlns="http://www.w3.org/2000/svg">
<path d="M22.3794 24.6253C22.0942 24.6253 21.6334 24.4498 20.9971 24.0988C20.3609 23.7697 19.7026 23.1773 19.0225 22.3216C18.4959 21.7731 17.9474 21.1807 17.3769 20.5444C16.8065 19.9081 16.2031 19.2499 15.5668 18.5697C14.9306 17.8896 14.2833 17.1984 13.6251 16.4963C12.9888 15.7942 12.3525 15.1031 11.7163 14.423C11.08 13.7209 10.4437 13.0297 9.80744 12.3496C9.17116 11.6694 8.5678 11.0112 7.99734 10.3749C7.42688 9.73864 6.87837 9.14625 6.3518 8.59773C6.30791 8.50997 6.23112 8.43318 6.12142 8.36736C6.03366 8.27959 5.96783 8.23571 5.92395 8.23571C5.83619 8.23571 5.77037 8.31251 5.72649 8.46609C5.70455 8.61967 5.69358 8.75132 5.69358 8.86102C5.67164 9.87029 5.67164 11.0551 5.69358 12.4154C5.71552 13.7757 5.73746 15.158 5.7594 16.5622C5.80328 17.9444 5.82522 19.206 5.82522 20.3469C5.82522 21.049 6.04463 21.6085 6.48344 22.0254C6.92225 22.4203 7.5695 22.7275 8.42518 22.9469C8.66653 22.9908 8.87496 23.0676 9.05049 23.1773C9.24795 23.265 9.34669 23.4076 9.34669 23.6051C9.34669 23.7587 9.25892 23.8794 9.0834 23.9671C8.90787 24.0549 8.72138 24.0988 8.52391 24.0988C7.93152 24.0988 7.44882 24.0768 7.07583 24.0329C6.70284 24.011 6.3518 24 6.02269 24C5.71552 23.9781 5.33156 23.9671 4.8708 23.9671C4.38811 23.9671 3.92736 23.9781 3.48855 24C3.07168 24.022 2.70966 24.0439 2.40249 24.0659C2.11726 24.0878 1.91979 24.0988 1.81009 24.0988C1.65651 24.0988 1.48098 24.0659 1.28352 24C1.10799 23.9123 1.02023 23.7916 1.02023 23.638C1.02023 23.4405 1.10799 23.2979 1.28352 23.2102C1.45904 23.1224 1.65651 23.0346 1.87591 22.9469C2.40249 22.7494 2.79742 22.4203 3.06071 21.9596C3.34593 21.4988 3.51049 20.9283 3.55437 20.2482C3.64213 19.4364 3.72989 18.3613 3.81766 17.0229C3.92736 15.6845 4.02609 14.1816 4.11385 12.5141C4.20162 10.8247 4.2455 9.08043 4.2455 7.2813C4.2455 6.14039 3.9493 5.31762 3.3569 4.81298C2.78645 4.30835 2.08435 3.90245 1.25061 3.59528C1.07508 3.5514 0.877616 3.4746 0.658211 3.3649C0.438805 3.23326 0.329102 3.0687 0.329102 2.87124C0.329102 2.67377 0.416864 2.54213 0.592389 2.47631C0.767913 2.38854 0.965379 2.34466 1.18478 2.34466C1.57972 2.34466 2.01853 2.35563 2.50122 2.37758C3.00585 2.39952 3.53243 2.42146 4.08094 2.4434C4.62946 2.4434 5.19991 2.45437 5.79231 2.47631C6.38471 2.49825 6.9771 2.50922 7.5695 2.50922C7.74502 2.50922 7.87667 2.54213 7.96443 2.60795C8.07413 2.67377 8.17286 2.76154 8.26063 2.87124C8.74332 3.41975 9.25892 4.01215 9.80744 4.64843C10.3779 5.2847 10.9703 5.95389 11.5846 6.65599C12.199 7.33615 12.8243 8.03825 13.4605 8.76229C14.0968 9.46439 14.7221 10.1775 15.3365 10.9015C15.9727 11.6255 16.5871 12.3276 17.1795 13.0078C17.7938 13.688 18.3862 14.3462 18.9567 14.9824C19.5271 15.6187 20.0537 16.2111 20.5364 16.7596C20.6022 16.8474 20.679 16.9461 20.7668 17.0558C20.8765 17.1436 20.9752 17.1875 21.063 17.1875C21.2385 17.1875 21.3263 17.0229 21.3263 16.6938C21.3263 16.0137 21.3263 15.2238 21.3263 14.3242C21.3482 13.4247 21.3592 12.4702 21.3592 11.461C21.3592 10.4517 21.3482 9.45342 21.3263 8.46609C21.3263 7.47876 21.3043 6.56823 21.2604 5.73449C21.2385 5.14209 21.0081 4.70328 20.5693 4.41805C20.1524 4.11088 19.571 3.85857 18.825 3.6611C18.5837 3.61722 18.3752 3.54043 18.1997 3.43072C18.0242 3.32102 17.9364 3.16744 17.9364 2.96997C17.9364 2.81639 18.0242 2.70668 18.1997 2.64086C18.3752 2.5531 18.5617 2.50922 18.7592 2.50922C19.2638 2.50922 19.6917 2.52019 20.0427 2.54213C20.3938 2.54213 20.7119 2.54213 20.9971 2.54213C21.2824 2.54213 21.6005 2.54213 21.9516 2.54213C22.3904 2.54213 22.7634 2.54213 23.0705 2.54213C23.3777 2.52019 23.7068 2.49825 24.0579 2.47631C24.4308 2.45437 24.9026 2.4434 25.473 2.4434C25.7363 2.4434 25.9338 2.48728 26.0654 2.57504C26.219 2.6628 26.2958 2.78348 26.2958 2.93706C26.2958 3.26617 26.0106 3.48558 25.4401 3.59528C24.6722 3.74886 24.1237 3.96827 23.7946 4.2535C23.4655 4.53872 23.2899 4.99948 23.268 5.63575C23.268 6.42561 23.257 7.27033 23.2351 8.16989C23.2351 9.06946 23.2131 9.99096 23.1693 10.9344C23.1254 11.8779 23.0815 12.8213 23.0376 13.7647C23.0157 14.6862 22.9937 15.5748 22.9718 16.4305C22.9499 17.2862 22.9389 18.0761 22.9389 18.8001C22.9389 19.3047 22.9718 19.8642 23.0376 20.4786C23.1034 21.071 23.1583 21.6195 23.2022 22.1241C23.268 22.6068 23.3009 22.9469 23.3009 23.1443C23.3009 23.6929 23.2131 24.0768 23.0376 24.2962C22.884 24.5156 22.6646 24.6253 22.3794 24.6253Z" fill="#060606"/>
<path d="M27.6035 24.0988C27.1647 24.0988 26.9453 23.9452 26.9453 23.638C26.9453 23.4625 27.0111 23.3308 27.1427 23.2431C27.2744 23.1334 27.4609 23.0456 27.7022 22.9798C28.0313 22.8701 28.3166 22.7494 28.5579 22.6178C28.8212 22.4861 28.9528 22.179 28.9528 21.6963V5.89904C28.9528 5.2847 28.876 4.7691 28.7225 4.35223C28.5689 3.91342 28.2178 3.63916 27.6693 3.52946C27.428 3.48558 27.3073 3.32102 27.3073 3.03579C27.3073 2.75056 27.417 2.58601 27.6364 2.54213C28.1849 2.43243 28.7773 2.27884 29.4136 2.08138C30.0718 1.86197 30.6971 1.64256 31.2895 1.42316C31.8819 1.18181 32.3427 1.00629 32.6718 0.896585C32.8473 0.830763 32.9899 0.797852 33.0996 0.797852C33.2313 0.797852 33.319 0.841733 33.3629 0.929495C33.4068 0.995318 33.4287 1.08308 33.4287 1.19278C33.4287 1.36831 33.3958 1.66451 33.33 2.08138C33.2861 2.49825 33.2532 2.959 33.2313 3.46363L33.2642 15.7723C33.2642 16.0356 33.3629 16.1672 33.5604 16.1672C33.6262 16.1672 33.703 16.1453 33.7907 16.1014C33.9004 16.0356 33.9992 15.9698 34.0869 15.904C34.8987 15.2019 35.6228 14.4888 36.2591 13.7647C36.8953 13.0407 37.3232 12.5141 37.5426 12.185C37.6303 12.0534 37.6962 11.9437 37.74 11.8559C37.8059 11.7681 37.8388 11.6914 37.8388 11.6255C37.8388 11.5158 37.751 11.4061 37.5755 11.2964C37.4 11.1648 37.1367 11.077 36.7856 11.0331C36.5223 10.9893 36.3907 10.8686 36.3907 10.6711C36.3907 10.4737 36.4675 10.353 36.6211 10.3091C36.7966 10.2433 36.9612 10.2104 37.1147 10.2104H38.7274C39.1223 10.2104 39.6379 10.1994 40.2742 10.1775C40.9105 10.1336 41.5358 10.0787 42.1501 10.0129C42.7644 9.94708 43.2033 9.91417 43.4665 9.91417C43.7079 9.91417 43.8286 10.0348 43.8286 10.2762C43.8286 10.4517 43.7627 10.6053 43.6311 10.7369C43.4995 10.8466 43.313 10.9234 43.0716 10.9673C42.6986 11.0551 42.2598 11.2087 41.7552 11.4281C41.2505 11.6475 40.7459 11.8998 40.2413 12.185C39.8683 12.3825 39.4624 12.6348 39.0236 12.942C38.6067 13.2272 38.1898 13.5344 37.773 13.8635C37.378 14.1926 37.016 14.5107 36.6869 14.8179C36.5772 14.9276 36.5223 15.0483 36.5223 15.1799C36.5223 15.2457 36.5443 15.3116 36.5882 15.3774C36.632 15.4213 36.6759 15.4761 36.7198 15.5419C37.2464 16.2221 37.751 16.8913 38.2337 17.5495C38.7164 18.2077 39.1991 18.844 39.6818 19.4583C40.1645 20.0507 40.6581 20.6431 41.1628 21.2355C41.5358 21.6304 41.9855 21.9925 42.5121 22.3216C43.0387 22.6507 43.4775 22.8811 43.8286 23.0127C44.0041 23.0785 44.1906 23.1553 44.388 23.2431C44.6075 23.3308 44.7172 23.4625 44.7172 23.638C44.7172 23.9452 44.4758 24.0988 43.9931 24.0988C42.6767 24.0988 41.3822 24.0768 40.1096 24.0329C38.859 24.011 37.6852 24 36.5882 24C36.1494 24 35.9299 23.8464 35.9299 23.5393C35.9299 23.3638 35.9958 23.2321 36.1274 23.1443C36.2591 23.0566 36.4346 22.9688 36.654 22.8811C36.8514 22.8152 36.9831 22.7384 37.0489 22.6507C37.1367 22.5629 37.1915 22.4642 37.2135 22.3545C37.2135 22.2667 37.1696 22.168 37.0818 22.0583C37.016 21.9266 36.9282 21.784 36.8185 21.6304L33.6262 17.2204C33.5604 17.1765 33.5055 17.1546 33.4616 17.1546C33.33 17.1765 33.2642 17.2533 33.2642 17.3849C33.2642 17.7141 33.2642 18.0541 33.2642 18.4052C33.2642 18.7562 33.2642 19.0963 33.2642 19.4254C33.2642 19.7765 33.2642 20.1604 33.2642 20.5773C33.2642 20.9722 33.2642 21.3562 33.2642 21.7292C33.2642 22.1022 33.341 22.3764 33.4945 22.552C33.6701 22.7055 33.9224 22.8372 34.2515 22.9469C34.427 23.0127 34.5806 23.1005 34.7122 23.2102C34.8658 23.2979 34.9426 23.4296 34.9426 23.6051C34.9426 23.7587 34.8768 23.8794 34.7452 23.9671C34.6355 24.0549 34.5038 24.0988 34.3502 24.0988C33.9114 24.0988 33.5055 24.0768 33.1325 24.0329C32.7815 24.011 32.4414 23.9891 32.1123 23.9671C31.7832 23.9452 31.4212 23.9342 31.0262 23.9342C30.6532 23.9342 30.2802 23.9452 29.9073 23.9671C29.5562 23.9891 29.1942 24.011 28.8212 24.0329C28.4482 24.0768 28.0423 24.0988 27.6035 24.0988Z" fill="#060606"/>
<path d="M51.5097 24.4608C50.1932 24.4608 49.0084 24.1646 47.9553 23.5722C46.9021 22.9798 46.0574 22.168 45.4211 21.1368C44.8068 20.0836 44.4996 18.8988 44.4996 17.5824C44.4996 16.5293 44.6971 15.531 45.092 14.5875C45.487 13.6441 46.0355 12.8103 46.7376 12.0863C47.4397 11.3622 48.2624 10.7918 49.2059 10.3749C50.1493 9.95805 51.1586 9.74961 52.2337 9.74961C53.594 9.74961 54.8227 10.0678 55.9197 10.704C57.0167 11.3403 57.8834 12.185 58.5197 13.2382C59.1779 14.2694 59.507 15.3993 59.507 16.628C59.507 18.0322 59.1998 19.3377 58.5855 20.5444C57.9931 21.7292 57.1045 22.6836 55.9197 23.4076C54.7569 24.1097 53.2868 24.4608 51.5097 24.4608ZM52.1679 23.0127C52.6286 23.0127 53.0236 22.9249 53.3527 22.7494C53.7037 22.552 53.9889 22.2667 54.2083 21.8937C54.4716 21.4549 54.6472 20.8625 54.7349 20.1165C54.8446 19.3486 54.8995 18.4491 54.8995 17.4179C54.8995 16.2331 54.7678 15.1799 54.5045 14.2584C54.2413 13.315 53.8683 12.569 53.3856 12.0205C52.9248 11.472 52.3763 11.1977 51.74 11.1977C51.389 11.1977 51.0708 11.2635 50.7856 11.3952C50.5004 11.5049 50.2481 11.6694 50.0287 11.8888C49.6557 12.3276 49.3924 12.9529 49.2388 13.7647C49.1072 14.5765 49.0413 15.5748 49.0413 16.7596C49.0413 17.8128 49.173 18.8221 49.4363 19.7874C49.7215 20.7309 50.0945 21.5098 50.5552 22.1241C51.0379 22.7165 51.5755 23.0127 52.1679 23.0127ZM52.0362 31.6024C51.3561 31.6024 50.7527 31.3501 50.2261 30.8455C49.7215 30.3409 49.4692 29.7375 49.4692 29.0354C49.4692 28.2894 49.7215 27.6641 50.2261 27.1595C50.7527 26.6548 51.3561 26.4025 52.0362 26.4025C52.8041 26.4025 53.4404 26.6548 53.9451 27.1595C54.4497 27.6641 54.702 28.2894 54.702 29.0354C54.702 29.7375 54.4497 30.3409 53.9451 30.8455C53.4404 31.3501 52.8041 31.6024 52.0362 31.6024Z" fill="#060606"/>
<path d="M67.5465 24.9874C67.4368 24.9874 67.3271 24.9654 67.2174 24.9215C67.1296 24.8777 67.0638 24.7899 67.0199 24.6583L62.2479 13.0407C62.0504 12.5361 61.82 12.1302 61.5567 11.823C61.2934 11.4939 60.9643 11.2525 60.5694 11.099C60.35 11.0112 60.1854 10.9234 60.0757 10.8357C59.988 10.726 59.9441 10.5834 59.9441 10.4078C59.9441 10.2323 60.0319 10.1226 60.2074 10.0787C60.4048 10.0348 60.5804 10.0129 60.734 10.0129C61.2386 10.0129 61.6445 10.0348 61.9517 10.0787C62.2588 10.1007 62.555 10.1336 62.8403 10.1775C63.1255 10.1994 63.4985 10.2104 63.9592 10.2104C64.398 10.2104 64.771 10.1994 65.0782 10.1775C65.4073 10.1336 65.7364 10.1007 66.0655 10.0787C66.3946 10.0348 66.8115 10.0129 67.3161 10.0129C67.4478 10.0129 67.6014 10.0458 67.7769 10.1116C67.9744 10.1775 68.0731 10.2872 68.0731 10.4407C68.0731 10.6382 67.9963 10.7699 67.8427 10.8357C67.6891 10.9015 67.5246 10.9783 67.349 11.0661C67.1077 11.1538 66.9322 11.2964 66.8225 11.4939C66.7128 11.6914 66.6579 11.9766 66.6579 12.3496C66.6579 12.7445 66.7237 13.1394 66.8554 13.5344L68.7971 18.6685C68.7971 18.7123 68.8191 18.7343 68.8629 18.7343C68.9288 18.7343 68.9617 18.7123 68.9617 18.6685L71.1338 13.5015C71.1996 13.3698 71.2435 13.2272 71.2654 13.0736C71.3093 12.8981 71.3313 12.7226 71.3313 12.547C71.3313 12.3057 71.2106 12.0534 70.9692 11.7901C70.7279 11.5049 70.4207 11.2855 70.0477 11.1319C69.8283 11.0441 69.6638 10.9563 69.5541 10.8686C69.4663 10.7589 69.4224 10.6163 69.4224 10.4407C69.4224 10.2652 69.5212 10.1555 69.7186 10.1116C69.9161 10.0678 70.1136 10.0458 70.311 10.0458C70.8376 10.0458 71.3642 10.0678 71.8907 10.1116C72.4173 10.1555 72.8561 10.1775 73.2072 10.1775C73.7776 10.1775 74.3042 10.1555 74.7869 10.1116C75.2915 10.0678 75.851 10.0458 76.4654 10.0458C76.6189 10.0458 76.7835 10.0787 76.959 10.1445C77.1565 10.2104 77.2552 10.3201 77.2552 10.4737C77.2552 10.6711 77.1675 10.8028 76.9919 10.8686C76.8384 10.9344 76.6738 11.0112 76.4983 11.099C76.2569 11.1867 76.0595 11.3074 75.9059 11.461C75.7523 11.6146 75.6755 11.8559 75.6755 12.185C75.6755 12.4483 75.7084 12.7006 75.7742 12.942C75.8401 13.1614 75.9059 13.3588 75.9717 13.5344L77.9134 18.6685C77.9354 18.7343 77.9793 18.7672 78.0451 18.7672C78.089 18.7672 78.1219 18.7453 78.1438 18.7014L79.9539 13.9622C80.0417 13.7428 80.1075 13.5124 80.1514 13.2711C80.1953 13.0297 80.2062 12.8103 80.1843 12.6129C80.1843 12.2618 80.0965 11.9656 79.921 11.7243C79.7455 11.461 79.5151 11.2745 79.2299 11.1648C79.0544 11.099 78.8898 11.0331 78.7362 10.9673C78.5826 10.8796 78.5058 10.7369 78.5058 10.5395C78.5058 10.364 78.5936 10.2542 78.7691 10.2104C78.9447 10.1445 79.1092 10.1116 79.2628 10.1116C79.8991 10.1336 80.3489 10.1555 80.6121 10.1775C80.8974 10.1775 81.2045 10.1775 81.5336 10.1775C81.753 10.1775 81.9395 10.1775 82.0931 10.1775C82.2686 10.1775 82.4771 10.1775 82.7184 10.1775C82.9598 10.1555 83.2779 10.1336 83.6729 10.1116C83.8264 10.1116 83.991 10.1336 84.1665 10.1775C84.364 10.2213 84.4627 10.3201 84.4627 10.4737C84.4627 10.6711 84.4079 10.8247 84.2982 10.9344C84.2104 11.0222 84.0568 11.1099 83.8374 11.1977C83.4425 11.3293 83.0805 11.5707 82.7513 11.9217C82.4222 12.2728 82.159 12.7006 81.9615 13.2053L77.321 24.6583C77.2333 24.8557 77.0468 24.9544 76.7616 24.9544C76.5422 24.9544 76.3776 24.8557 76.2679 24.6583L72.154 15.2128C72.1321 15.1689 72.0992 15.147 72.0553 15.147C72.0114 15.147 71.9785 15.1799 71.9566 15.2457L68.106 24.6583C67.9963 24.8777 67.8098 24.9874 67.5465 24.9874Z" fill="#060606"/>
<path d="M88.0333 24.4608C87.4409 24.4608 86.8924 24.3182 86.3877 24.0329C85.8831 23.7477 85.4772 23.3747 85.17 22.914C84.8848 22.4532 84.7422 21.9486 84.7422 21.4001C84.7422 20.6541 84.9726 20.0288 85.4333 19.5242C85.916 19.0195 86.6181 18.5697 87.5396 18.1748L90.4687 16.8913C90.9075 16.6938 91.1708 16.5183 91.2586 16.3647C91.3683 16.2111 91.4231 15.9259 91.4231 15.509L91.456 13.6331C91.478 13.0188 91.3683 12.5361 91.1269 12.185C90.8856 11.812 90.5235 11.6255 90.0408 11.6255C89.7556 11.6255 89.4704 11.6914 89.1852 11.823C88.8999 11.9327 88.6805 12.0643 88.5269 12.2179C88.4611 12.3057 88.4063 12.4154 88.3624 12.547C88.3405 12.6567 88.3295 12.7774 88.3295 12.9091C88.3295 13.0407 88.3405 13.2053 88.3624 13.4027C88.3843 13.5782 88.3953 13.7318 88.3953 13.8635C88.3953 13.9951 88.2198 14.1706 87.8687 14.3901C87.5177 14.5875 87.1118 14.774 86.651 14.9495C86.1903 15.1031 85.7953 15.1799 85.4662 15.1799C85.3127 15.1799 85.17 15.1141 85.0384 14.9824C84.9287 14.8508 84.8738 14.6862 84.8738 14.4888C84.8738 14.1377 84.9945 13.7977 85.2359 13.4685C85.4772 13.1175 85.8721 12.7226 86.4207 12.2838C86.9911 11.8011 87.6164 11.3732 88.2966 11.0002C88.9767 10.6272 89.6459 10.331 90.3041 10.1116C90.9843 9.89223 91.5548 9.78253 92.0155 9.78253C93.2003 9.78253 94.1437 10.1665 94.8458 10.9344C95.5479 11.6804 95.877 12.6787 95.8332 13.9293L95.6686 20.5773C95.6467 21.0819 95.7344 21.5098 95.9319 21.8608C96.1294 22.2119 96.3707 22.3874 96.6559 22.3874C97.0728 22.3874 97.4348 22.2448 97.742 21.9596C97.8078 21.8937 97.8736 21.8608 97.9395 21.8608C98.0492 21.8608 98.1369 21.8937 98.2028 21.9596C98.2905 22.0254 98.3344 22.1131 98.3344 22.2228C98.3344 22.4861 98.1369 22.8262 97.742 23.2431C97.3251 23.638 96.8863 23.9342 96.4256 24.1317C95.9648 24.3511 95.4821 24.4608 94.9775 24.4608C93.7488 24.4608 92.7286 23.8355 91.9168 22.5849H91.851C91.1269 23.2431 90.4687 23.7148 89.8763 24C89.3058 24.3072 88.6915 24.4608 88.0333 24.4608ZM90.0079 22.3216C90.2493 22.3216 90.4467 22.2887 90.6003 22.2228C90.7539 22.1351 90.9075 22.0034 91.0611 21.8279C91.1269 21.7402 91.1818 21.6304 91.2256 21.4988C91.2695 21.3452 91.2915 21.1697 91.2915 20.9722L91.3902 18.6026C91.3902 18.3832 91.3573 18.2406 91.2915 18.1748C91.2256 18.109 91.1489 18.0761 91.0611 18.0761C91.0172 18.0761 90.9624 18.087 90.8965 18.109C90.8307 18.1309 90.7539 18.1638 90.6662 18.2077C90.0299 18.5149 89.5582 18.833 89.251 19.1621C88.9438 19.4693 88.7902 19.9739 88.7902 20.676C88.7902 21.3123 88.9219 21.7511 89.1852 21.9925C89.4485 22.2119 89.7227 22.3216 90.0079 22.3216Z" fill="#060606"/>
<path d="M113.828 24.4608C112.512 24.4608 111.327 24.1646 110.274 23.5722C109.221 22.9798 108.376 22.168 107.74 21.1368C107.125 20.0836 106.818 18.8988 106.818 17.5824C106.818 16.5293 107.016 15.531 107.411 14.5875C107.806 13.6441 108.354 12.8103 109.056 12.0863C109.758 11.3622 110.581 10.7918 111.524 10.3749C112.468 9.95805 113.477 9.74961 114.552 9.74961C115.913 9.74961 117.141 10.0678 118.238 10.704C119.335 11.3403 120.202 12.185 120.838 13.2382C121.496 14.2694 121.826 15.3993 121.826 16.628C121.826 18.0322 121.518 19.3377 120.904 20.5444C120.312 21.7292 119.423 22.6836 118.238 23.4076C117.075 24.1097 115.605 24.4608 113.828 24.4608ZM114.486 23.0127C114.947 23.0127 115.342 22.9249 115.671 22.7494C116.022 22.552 116.308 22.2667 116.527 21.8937C116.79 21.4549 116.966 20.8625 117.053 20.1165C117.163 19.3486 117.218 18.4491 117.218 17.4179C117.218 16.2331 117.086 15.1799 116.823 14.2584C116.56 13.315 116.187 12.569 115.704 12.0205C115.243 11.472 114.695 11.1977 114.059 11.1977C113.708 11.1977 113.389 11.2635 113.104 11.3952C112.819 11.5049 112.567 11.6694 112.347 11.8888C111.974 12.3276 111.711 12.9529 111.557 13.7647C111.426 14.5765 111.36 15.5748 111.36 16.7596C111.36 17.8128 111.492 18.8221 111.755 19.7874C112.04 20.7309 112.413 21.5098 112.874 22.1241C113.357 22.7165 113.894 23.0127 114.486 23.0127Z" fill="#060606"/>
<path d="M123.283 24.0988C122.844 24.0988 122.625 23.9452 122.625 23.638C122.625 23.4625 122.691 23.3308 122.822 23.2431C122.954 23.1334 123.14 23.0456 123.382 22.9798C123.711 22.8701 123.996 22.7494 124.237 22.6178C124.501 22.4861 124.632 22.179 124.632 21.6963V5.89904C124.632 5.2847 124.555 4.7691 124.402 4.35223C124.248 3.91342 123.897 3.63916 123.349 3.52946C123.107 3.48558 122.987 3.32102 122.987 3.03579C122.987 2.75056 123.096 2.58601 123.316 2.54213C123.864 2.43243 124.457 2.27884 125.093 2.08138C125.751 1.86197 126.377 1.64256 126.969 1.42316C127.561 1.18181 128.022 1.00629 128.351 0.896585C128.527 0.830763 128.669 0.797852 128.779 0.797852C128.911 0.797852 128.998 0.841733 129.042 0.929495C129.086 0.995318 129.108 1.08308 129.108 1.19278C129.108 1.36831 129.075 1.66451 129.009 2.08138C128.966 2.49825 128.933 2.959 128.911 3.46363L128.944 15.7723C128.944 16.0356 129.042 16.1672 129.24 16.1672C129.306 16.1672 129.382 16.1453 129.47 16.1014C129.58 16.0356 129.679 15.9698 129.766 15.904C130.578 15.2019 131.302 14.4888 131.938 13.7647C132.575 13.0407 133.003 12.5141 133.222 12.185C133.31 12.0534 133.376 11.9437 133.419 11.8559C133.485 11.7681 133.518 11.6914 133.518 11.6255C133.518 11.5158 133.43 11.4061 133.255 11.2964C133.079 11.1648 132.816 11.077 132.465 11.0331C132.202 10.9893 132.07 10.8686 132.07 10.6711C132.07 10.4737 132.147 10.353 132.3 10.3091C132.476 10.2433 132.641 10.2104 132.794 10.2104H134.407C134.802 10.2104 135.317 10.1994 135.954 10.1775C136.59 10.1336 137.215 10.0787 137.83 10.0129C138.444 9.94708 138.883 9.91417 139.146 9.91417C139.387 9.91417 139.508 10.0348 139.508 10.2762C139.508 10.4517 139.442 10.6053 139.311 10.7369C139.179 10.8466 138.992 10.9234 138.751 10.9673C138.378 11.0551 137.939 11.2087 137.435 11.4281C136.93 11.6475 136.425 11.8998 135.921 12.185C135.548 12.3825 135.142 12.6348 134.703 12.942C134.286 13.2272 133.869 13.5344 133.452 13.8635C133.057 14.1926 132.695 14.5107 132.366 14.8179C132.257 14.9276 132.202 15.0483 132.202 15.1799C132.202 15.2457 132.224 15.3116 132.268 15.3774C132.311 15.4213 132.355 15.4761 132.399 15.5419C132.926 16.2221 133.43 16.8913 133.913 17.5495C134.396 18.2077 134.879 18.844 135.361 19.4583C135.844 20.0507 136.338 20.6431 136.842 21.2355C137.215 21.6304 137.665 21.9925 138.192 22.3216C138.718 22.6507 139.157 22.8811 139.508 23.0127C139.684 23.0785 139.87 23.1553 140.067 23.2431C140.287 23.3308 140.397 23.4625 140.397 23.638C140.397 23.9452 140.155 24.0988 139.673 24.0988C138.356 24.0988 137.062 24.0768 135.789 24.0329C134.538 24.011 133.365 24 132.268 24C131.829 24 131.609 23.8464 131.609 23.5393C131.609 23.3638 131.675 23.2321 131.807 23.1443C131.938 23.0566 132.114 22.9688 132.333 22.8811C132.531 22.8152 132.663 22.7384 132.728 22.6507C132.816 22.5629 132.871 22.4642 132.893 22.3545C132.893 22.2667 132.849 22.168 132.761 22.0583C132.695 21.9266 132.608 21.784 132.498 21.6304L129.306 17.2204C129.24 17.1765 129.185 17.1546 129.141 17.1546C129.009 17.1765 128.944 17.2533 128.944 17.3849C128.944 17.7141 128.944 18.0541 128.944 18.4052C128.944 18.7562 128.944 19.0963 128.944 19.4254C128.944 19.7765 128.944 20.1604 128.944 20.5773C128.944 20.9722 128.944 21.3562 128.944 21.7292C128.944 22.1022 129.02 22.3764 129.174 22.552C129.349 22.7055 129.602 22.8372 129.931 22.9469C130.106 23.0127 130.26 23.1005 130.392 23.2102C130.545 23.2979 130.622 23.4296 130.622 23.6051C130.622 23.7587 130.556 23.8794 130.425 23.9671C130.315 24.0549 130.183 24.0988 130.03 24.0988C129.591 24.0988 129.185 24.0768 128.812 24.0329C128.461 24.011 128.121 23.9891 127.792 23.9671C127.463 23.9452 127.101 23.9342 126.706 23.9342C126.333 23.9342 125.96 23.9452 125.587 23.9671C125.236 23.9891 124.874 24.011 124.501 24.0329C124.128 24.0768 123.722 24.0988 123.283 24.0988Z" fill="#060606"/>
<path d="M147.831 24.9874C147.721 24.9874 147.612 24.9654 147.502 24.9215C147.414 24.8777 147.348 24.7899 147.305 24.6583L142.532 13.0407C142.335 12.5361 142.105 12.1302 141.841 11.823C141.578 11.4939 141.249 11.2525 140.854 11.099C140.635 11.0112 140.47 10.9234 140.36 10.8357C140.273 10.726 140.229 10.5834 140.229 10.4078C140.229 10.2323 140.316 10.1226 140.492 10.0787C140.689 10.0348 140.865 10.0129 141.019 10.0129C141.523 10.0129 141.929 10.0348 142.236 10.0787C142.543 10.1007 142.84 10.1336 143.125 10.1775C143.41 10.1994 143.783 10.2104 144.244 10.2104C144.683 10.2104 145.056 10.1994 145.363 10.1775C145.692 10.1336 146.021 10.1007 146.35 10.0787C146.679 10.0348 147.096 10.0129 147.601 10.0129C147.732 10.0129 147.886 10.0458 148.061 10.1116C148.259 10.1775 148.358 10.2872 148.358 10.4407C148.358 10.6382 148.281 10.7699 148.127 10.8357C147.974 10.9015 147.809 10.9783 147.634 11.0661C147.392 11.1538 147.217 11.2964 147.107 11.4939C146.997 11.6914 146.943 11.9766 146.943 12.3496C146.943 12.7445 147.008 13.1394 147.14 13.5344L149.082 18.6685C149.082 18.7123 149.104 18.7343 149.148 18.7343C149.213 18.7343 149.246 18.7123 149.246 18.6685L151.418 13.5015C151.484 13.3698 151.528 13.2272 151.55 13.0736C151.594 12.8981 151.616 12.7226 151.616 12.547C151.616 12.3057 151.495 12.0534 151.254 11.7901C151.012 11.5049 150.705 11.2855 150.332 11.1319C150.113 11.0441 149.948 10.9563 149.839 10.8686C149.751 10.7589 149.707 10.6163 149.707 10.4407C149.707 10.2652 149.806 10.1555 150.003 10.1116C150.201 10.0678 150.398 10.0458 150.596 10.0458C151.122 10.0458 151.649 10.0678 152.175 10.1116C152.702 10.1555 153.141 10.1775 153.492 10.1775C154.062 10.1775 154.589 10.1555 155.071 10.1116C155.576 10.0678 156.136 10.0458 156.75 10.0458C156.904 10.0458 157.068 10.0787 157.244 10.1445C157.441 10.2104 157.54 10.3201 157.54 10.4737C157.54 10.6711 157.452 10.8028 157.277 10.8686C157.123 10.9344 156.958 11.0112 156.783 11.099C156.542 11.1867 156.344 11.3074 156.19 11.461C156.037 11.6146 155.96 11.8559 155.96 12.185C155.96 12.4483 155.993 12.7006 156.059 12.942C156.125 13.1614 156.19 13.3588 156.256 13.5344L158.198 18.6685C158.22 18.7343 158.264 18.7672 158.33 18.7672C158.374 18.7672 158.406 18.7453 158.428 18.7014L160.239 13.9622C160.326 13.7428 160.392 13.5124 160.436 13.2711C160.48 13.0297 160.491 12.8103 160.469 12.6129C160.469 12.2618 160.381 11.9656 160.206 11.7243C160.03 11.461 159.8 11.2745 159.514 11.1648C159.339 11.099 159.174 11.0331 159.021 10.9673C158.867 10.8796 158.79 10.7369 158.79 10.5395C158.79 10.364 158.878 10.2542 159.054 10.2104C159.229 10.1445 159.394 10.1116 159.547 10.1116C160.184 10.1336 160.633 10.1555 160.897 10.1775C161.182 10.1775 161.489 10.1775 161.818 10.1775C162.038 10.1775 162.224 10.1775 162.378 10.1775C162.553 10.1775 162.762 10.1775 163.003 10.1775C163.244 10.1555 163.562 10.1336 163.957 10.1116C164.111 10.1116 164.276 10.1336 164.451 10.1775C164.649 10.2213 164.747 10.3201 164.747 10.4737C164.747 10.6711 164.692 10.8247 164.583 10.9344C164.495 11.0222 164.341 11.1099 164.122 11.1977C163.727 11.3293 163.365 11.5707 163.036 11.9217C162.707 12.2728 162.444 12.7006 162.246 13.2053L157.606 24.6583C157.518 24.8557 157.331 24.9544 157.046 24.9544C156.827 24.9544 156.662 24.8557 156.552 24.6583L152.439 15.2128C152.417 15.1689 152.384 15.147 152.34 15.147C152.296 15.147 152.263 15.1799 152.241 15.2457L148.391 24.6583C148.281 24.8777 148.094 24.9874 147.831 24.9874Z" fill="#060606"/>
<path d="M176.199 24.6912C176.023 24.6912 175.935 24.5815 175.935 24.3621C175.935 24.0988 175.957 23.7477 176.001 23.3089C176.067 22.8701 176.1 22.53 176.1 22.2887C176.1 22.2009 176.089 22.1241 176.067 22.0583C176.067 21.9925 176.056 21.9486 176.034 21.9266C175.442 22.6507 174.685 23.265 173.763 23.7697C172.842 24.2523 171.865 24.4937 170.834 24.4937C170.154 24.4937 169.54 24.2962 168.991 23.9013C168.443 23.4844 168.004 22.9249 167.675 22.2228C167.368 21.5207 167.214 20.7309 167.214 19.8533V13.6989C167.214 13.1943 167.115 12.7884 166.918 12.4812C166.742 12.1741 166.402 11.9656 165.898 11.8559C165.766 11.834 165.645 11.7791 165.536 11.6914C165.448 11.5817 165.404 11.4281 165.404 11.2306C165.404 11.077 165.448 10.9563 165.536 10.8686C165.623 10.7589 165.744 10.6931 165.898 10.6711C166.819 10.6272 167.653 10.5395 168.399 10.4078C169.145 10.2542 169.902 10.0787 170.67 9.88126C170.779 9.85932 170.889 9.83738 170.999 9.81544C171.13 9.77156 171.251 9.74961 171.361 9.74961C171.668 9.74961 171.811 9.9032 171.789 10.2104C171.701 10.715 171.635 11.1428 171.591 11.4939C171.547 11.823 171.525 12.2399 171.525 12.7445V19.0634C171.525 19.59 171.613 20.0507 171.789 20.4457C171.964 20.8406 172.206 21.1478 172.513 21.3672C172.82 21.5866 173.16 21.7072 173.533 21.7292C173.884 21.7292 174.224 21.6853 174.553 21.5975C174.904 21.5098 175.233 21.3123 175.541 21.0051C175.672 20.8954 175.815 20.676 175.968 20.3469C176.122 19.9959 176.199 19.5351 176.199 18.9647V13.666C176.199 13.2711 176.122 12.9529 175.968 12.7116C175.815 12.4483 175.606 12.2399 175.343 12.0863C175.08 11.9327 174.773 11.8449 174.422 11.823C174.18 11.8011 173.983 11.7462 173.829 11.6584C173.698 11.5487 173.632 11.3622 173.632 11.099C173.632 10.8796 173.708 10.715 173.862 10.6053C174.016 10.4956 174.202 10.4407 174.422 10.4407C175.541 10.3749 176.429 10.3201 177.087 10.2762C177.746 10.2104 178.283 10.1445 178.7 10.0787C179.117 10.0129 179.534 9.93611 179.951 9.84835C180.016 9.82641 180.093 9.80447 180.181 9.78253C180.269 9.76059 180.335 9.74961 180.378 9.74961C180.708 9.74961 180.872 9.88126 180.872 10.1445C180.872 10.2104 180.861 10.2872 180.839 10.3749C180.817 10.4627 180.784 10.5504 180.74 10.6382C180.719 10.726 180.686 10.9234 180.642 11.2306C180.62 11.5158 180.587 11.823 180.543 12.1521C180.521 12.4812 180.51 12.7445 180.51 12.942V20.5773C180.51 21.0819 180.565 21.422 180.675 21.5975C180.806 21.7511 180.949 21.8279 181.102 21.8279C181.212 21.8279 181.377 21.8389 181.596 21.8608C181.816 21.8608 181.958 21.8608 182.024 21.8608C182.221 21.8608 182.375 21.9157 182.485 22.0254C182.594 22.1351 182.649 22.2777 182.649 22.4532C182.649 22.6507 182.605 22.8152 182.518 22.9469C182.452 23.0566 182.309 23.1224 182.09 23.1443C181.037 23.2321 180.082 23.4186 179.227 23.7038C178.393 23.9671 177.669 24.2194 177.054 24.4608C176.923 24.5047 176.78 24.5485 176.627 24.5924C176.473 24.6583 176.33 24.6912 176.199 24.6912Z" fill="#060606"/>
</svg>
