<?xml version="1.0" encoding="utf-8"?>
<!-- Generator: Adobe Illustrator 25.4.1, SVG Export Plug-In . SVG Version: 6.00 Build 0)  -->
<svg version="1.1" id="Layer_1" xmlns="http://www.w3.org/2000/svg" xmlns:xlink="http://www.w3.org/1999/xlink" x="0px" y="0px"
	 viewBox="0 0 500 410" style="enable-background:new 0 0 500 410;" xml:space="preserve">
<style type="text/css">
	.st0{clip-path:url(#SVGID_00000001663854521174832380000006322027158965923204_);}
	.st1{fill:#2F2E41;}
	.st2{fill:#FFFFFF;}
	.st3{fill:#3F3D56;}
	.st4{fill:#48825D;}
	.st5{fill:#EBF6F0;}
	.st6{opacity:0.15;fill:#48825D;enable-background:new    ;}
	.st7{fill:#2CBE66;}
	.st8{fill:#8E631E;}
	.st9{fill:#CCCCCC;}
</style>
<g>
	<defs>
		<rect id="SVGID_1_" x="343" y="102" width="163.5" height="144"/>
	</defs>
	<clipPath id="SVGID_00000152222092771587306920000018300151209315517070_">
		<use xlink:href="#SVGID_1_"  style="overflow:visible;"/>
	</clipPath>
	<g style="clip-path:url(#SVGID_00000152222092771587306920000018300151209315517070_);">
		<path class="st1" d="M377.1,217.1c1.2-3.5,1.4-6.7,0.4-7.1c-1-0.4-2.9,2.1-4.1,5.6c-1.2,3.5-1.4,6.7-0.4,7.1
			C374,223.1,375.9,220.6,377.1,217.1z"/>
		<path class="st1" d="M376.1,228.8c1.1-7.4-3.6-14.3-10.4-15.5c-6.9-1.2-13.3,3.8-14.5,11.2c-1.1,7.4,3.6,14.3,10.4,15.5
			C368.5,241.2,374.9,236.2,376.1,228.8z"/>
		<path class="st1" d="M361.7,237.2h-3.8v7.4h3.8V237.2z"/>
		<path class="st1" d="M369.4,237.2h-3.8v7.4h3.8V237.2z"/>
		<path class="st1" d="M361.1,246c1.8,0,3.2-0.6,3.2-1.3c0-0.7-1.4-1.3-3.2-1.3c-1.8,0-3.2,0.6-3.2,1.3
			C357.9,245.4,359.3,246,361.1,246z"/>
		<path class="st1" d="M368.7,245.8c1.8,0,3.2-0.6,3.2-1.3c0-0.7-1.4-1.3-3.2-1.3c-1.8,0-3.2,0.6-3.2,1.3
			C365.5,245.2,367,245.8,368.7,245.8z"/>
		<path class="st2" d="M364.1,227.8c2.4-0.1,4.3-2.2,4.2-4.8c-0.1-2.6-2.1-4.6-4.4-4.5c-2.4,0.1-4.3,2.2-4.2,4.8
			C359.7,225.9,361.7,227.9,364.1,227.8z"/>
		<path class="st3" d="M363.9,224.7c0.8,0,1.4-0.7,1.4-1.5c0-0.9-0.6-1.5-1.4-1.5c-0.8,0-1.4,0.7-1.4,1.5
			C362.5,224,363.1,224.7,363.9,224.7z"/>
		<path class="st4" d="M351.4,214c-1-4.9,2.2-9.8,7.3-11.1c5-1.2,9.9,1.8,11,6.7c1,4.9-2.3,6.7-7.3,7.9
			C357.2,218.8,352.4,218.9,351.4,214z"/>
		<path class="st1" d="M355.1,223.2c0.5-1.1-1.7-3.2-4.8-4.8c-3.1-1.6-6.1-2-6.5-1s1.7,3.2,4.8,4.8
			C351.7,223.8,354.6,224.3,355.1,223.2z"/>
		<path class="st2" d="M357.4,231.5c0,1.3,3.2,3.9,6.7,3.9c3.5,0,6.8-3.7,6.8-5.1c0-1.3-3.3,0.3-6.8,0.3S357.4,230.2,357.4,231.5z"
			/>
		<path class="st5" d="M452.3,189.8l-13.7,14.5l-31,32.8l-0.6,0.7l-3.5,3.7l-7.3-7.8l-0.6-0.7l-13.4-14.2h0l-4.3-4.5l-2.5-2.7
			l-7.5-8l-1-1.1l-12-12.8c-2.4-2.6-4.4-5.5-6-8.7c-0.1-0.3-0.3-0.6-0.4-0.9c-2.9-6.1-4.1-12.9-3.5-19.7c0.5-6.8,2.8-13.3,6.6-18.8
			c3.8-5.5,8.9-9.7,14.8-12.3c5.9-2.6,12.3-3.3,18.6-2.2h0c0.1,0,0.2,0,0.3,0.1c1.2,0.2,2.3,0.5,3.5,0.9c3,0.9,5.9,2.3,8.5,4.1
			c0.3,0.2,0.6,0.4,0.8,0.6c1.9,1.4,3.8,3,5.4,4.7l0.1-0.1l0.1,0.1c1-1.1,2.1-2.1,3.2-3c0.2-0.2,0.5-0.4,0.7-0.6
			c3.8-3,8.1-5.1,12.6-6.2c4.6-1.1,9.3-1.3,13.9-0.4c1.2,0.2,2.3,0.5,3.5,0.9c0.4,0.1,0.8,0.2,1.1,0.4c0.3,0.1,0.6,0.2,0.9,0.3
			c2.5,1,4.9,2.2,7.1,3.8c0.5,0.3,1,0.7,1.4,1.1c4,3.1,7.4,7.2,9.8,11.8c2.4,4.7,3.9,9.8,4.3,15.2c0.4,5.3-0.3,10.7-2,15.7
			C458.5,181.5,455.8,186,452.3,189.8z"/>
		<path class="st6" d="M438.6,204.3l-31,32.8l-0.6,0.7l-3.5,3.7l-7.3-7.8l-0.6-0.7l-13.4-14.2c2.1-0.5,5.5,0.2,6.7,0.8
			c2.9,1.5,5.2,4,8.1,5.4c2.6,1.3,5.5,1.6,8.3,1c5.2-1.2,9.3-5.5,12.8-9.8c3.6-4.3,7.2-8.8,12.2-10.8
			C432.9,204.5,435.8,204.2,438.6,204.3z"/>
		<path class="st7" d="M461.1,138.2c-4.3-4.6-9.6-7.9-15.4-9.6c-0.4-0.1-0.8-0.2-1.2-0.3c-1.7-0.4-3.4-0.7-5.1-0.9
			c-0.3,0-0.6-0.1-0.9-0.1c-1.5-0.1-3-0.1-4.5,0c-8.2,0.6-16,4.3-21.9,10.5l-0.1-0.1l-0.1,0.1c-3.9-4-8.5-7.1-13.7-8.8
			c-0.3-0.1-0.6-0.2-0.9-0.3c-4-1.2-8.1-1.7-12.2-1.4c-0.1,0-0.2,0-0.3,0c-7.5,0.6-14.7,3.9-20.3,9.2c-0.5,0.5-1.1,1-1.6,1.6
			c-4.8,5.1-8.1,11.7-9.5,18.8c-1.4,7.1-0.8,14.5,1.7,21.3c0.1,0.3,0.2,0.6,0.3,0.9c1.7,4.5,4.3,8.5,7.5,11.9l11.4,12.1l0.9,1
			l24.7,26.1l0.6,0.7l6.5,6.9l5,5.3l49.1-52c6.5-7,10.2-16.5,10.2-26.5C471.3,154.7,467.6,145.2,461.1,138.2z M460.5,190.4
			L412,241.8l-4.4-4.6l-6.3-6.7l-0.6-0.7l-24.2-25.6l-0.9-0.9l-12-12.8c-3.1-3.3-5.6-7.2-7.2-11.5c-0.1-0.3-0.2-0.6-0.3-0.9
			c-2.4-6.6-3-13.8-1.6-20.8c1.3-7,4.6-13.3,9.2-18.4c0.5-0.6,1.1-1.1,1.7-1.7h0c5.4-5.1,12.3-8.2,19.5-8.9c1-0.1,1.9-0.1,2.9-0.1
			c0.4,0,0.7,0,1.1,0c2.9,0.1,5.9,0.6,8.7,1.5c0.3,0.1,0.6,0.2,0.9,0.3c3.1,1.1,5.9,2.6,8.6,4.6c1.7,1.3,3.3,2.7,4.8,4.3l0.3,0.3
			l0.1-0.1l0.1,0.1l0.3-0.3c3.3-3.5,7.2-6.3,11.5-8.1c4.3-1.8,8.9-2.7,13.6-2.5c0.4,0,0.7,0,1.1,0.1c0.3,0,0.6,0,0.9,0.1
			c1.9,0.2,3.8,0.5,5.6,1.1c0.4,0.1,0.8,0.2,1.2,0.4c5.6,1.8,10.7,5.2,14.7,9.7c4,4.6,6.9,10.2,8.4,16.3c1.4,6.1,1.4,12.5-0.2,18.6
			C467.6,180.4,464.6,185.9,460.5,190.4z"/>
		<path class="st4" d="M417.5,228c1.4,0.5,2.8,0.6,4.3,0.4c1.4-0.3,2.8-0.9,3.9-1.9c2.8-2.6,3.7-6.8,4.5-10.7l2.1-11.6l-4.5,3.3
			c-3.2,2.4-6.5,4.9-8.8,8.3c-2.2,3.5-3.2,8.2-1.4,11.9L417.5,228z"/>
		<path class="st8" d="M417.9,242c-0.5-3.6-0.9-7.2-0.6-10.8c0.3-3.2,1.2-6.3,3-8.9c1-1.4,2.2-2.5,3.5-3.4c0.4-0.2,0.7,0.4,0.3,0.6
			c-2.3,1.6-4.2,3.9-5.2,6.7c-1.1,3.1-1.3,6.4-1.1,9.7c0.1,2,0.4,3.9,0.6,5.9c0,0.1,0,0.2,0,0.3c0,0.1-0.1,0.1-0.2,0.2
			c-0.1,0-0.2,0-0.2,0C418,242.2,417.9,242.1,417.9,242L417.9,242z"/>
		<path class="st4" d="M422.3,235.7c0.6,1,1.4,1.7,2.3,2.3c0.9,0.5,2,0.8,3.1,0.7c2.7-0.1,5-2.2,7.1-4.1l6.1-5.8l-4-0.2
			c-2.9-0.1-5.8-0.3-8.6,0.7c-2.7,1-5.3,3.3-5.8,6.3L422.3,235.7z"/>
		<path class="st8" d="M416.6,244.1c2.2-4.2,4.7-8.8,9.3-10.3c1.3-0.4,2.6-0.6,3.9-0.4c0.4,0,0.3,0.7-0.1,0.7
			c-2.2-0.2-4.4,0.4-6.2,1.8c-1.8,1.3-3.1,3.1-4.3,5c-0.7,1.2-1.3,2.4-2,3.6C417,244.8,416.4,244.5,416.6,244.1L416.6,244.1z"/>
		<path class="st1" d="M372.3,139.5c7,0,12.6-6.1,12.6-13.5c0-7.5-5.6-13.5-12.6-13.5c-7,0-12.6,6.1-12.6,13.5
			C359.7,133.4,365.4,139.5,372.3,139.5z"/>
		<path class="st1" d="M370.4,136.5h-3.8v7.4h3.8V136.5z"/>
		<path class="st1" d="M378.1,136.5h-3.8v7.4h3.8V136.5z"/>
		<path class="st1" d="M369.8,145.3c1.8,0,3.2-0.6,3.2-1.3c0-0.7-1.4-1.3-3.2-1.3c-1.8,0-3.2,0.6-3.2,1.3
			C366.6,144.7,368,145.3,369.8,145.3z"/>
		<path class="st1" d="M377.4,145.1c1.8,0,3.2-0.6,3.2-1.3c0-0.7-1.4-1.3-3.2-1.3c-1.8,0-3.2,0.6-3.2,1.3
			C374.2,144.5,375.7,145.1,377.4,145.1z"/>
		<path class="st2" d="M372.6,127.1c2.4,0,4.3-2.1,4.3-4.6c0-2.6-1.9-4.6-4.3-4.6c-2.4,0-4.3,2.1-4.3,4.6
			C368.3,125,370.3,127.1,372.6,127.1z"/>
		<path class="st3" d="M375.1,124.5c0.6-0.6,0.6-1.6,0-2.2c-0.6-0.6-1.5-0.6-2,0c-0.6,0.6-0.6,1.6,0,2.2
			C373.6,125.1,374.6,125.1,375.1,124.5z"/>
		<path class="st4" d="M360.1,113.3c-1-4.9,2.2-9.8,7.3-11.1c5-1.2,9.9,1.8,11,6.7c1,4.9-2.3,6.7-7.3,7.9
			C365.9,118.1,361.1,118.2,360.1,113.3z"/>
		<path class="st1" d="M473.7,218.2c0.8-0.7-0.3-3.7-2.5-6.6c-2.2-2.9-4.7-4.6-5.5-3.9c-0.8,0.7,0.3,3.7,2.5,6.6
			C470.4,217.2,472.9,218.9,473.7,218.2z"/>
		<path class="st1" d="M482.7,239.8c6.9-1.2,11.5-8.2,10.4-15.5c-1.1-7.4-7.6-12.4-14.5-11.2c-6.9,1.2-11.5,8.2-10.4,15.5
			C469.3,236,475.8,241,482.7,239.8z"/>
		<path class="st1" d="M486.4,237.1h-3.8v7.4h3.8V237.1z"/>
		<path class="st1" d="M478.8,237.1h-3.8v7.4h3.8V237.1z"/>
		<path class="st1" d="M483.2,245.8c1.8,0,3.2-0.6,3.2-1.3c0-0.7-1.4-1.3-3.2-1.3s-3.2,0.6-3.2,1.3
			C480,245.3,481.5,245.8,483.2,245.8z"/>
		<path class="st1" d="M475.6,245.7c1.8,0,3.2-0.6,3.2-1.3c0-0.7-1.4-1.3-3.2-1.3c-1.8,0-3.2,0.6-3.2,1.3
			C472.4,245.1,473.8,245.7,475.6,245.7z"/>
		<path class="st4" d="M485.1,219.2c-4-3.5-6.2-6.8-3.2-10.6c3-3.9,8.6-4.1,12.6-0.6c4,3.5,4.8,9.5,1.8,13.4
			C493.3,225.3,489.1,222.8,485.1,219.2z"/>
		<path class="st2" d="M476.4,224.1c2.4-0.1,4.3-2.2,4.2-4.8c-0.1-2.6-2.1-4.6-4.4-4.5c-2.4,0.1-4.3,2.2-4.2,4.8
			C472.1,222.1,474.1,224.1,476.4,224.1z"/>
		<path class="st3" d="M474.8,219.8c0.8,0,1.4-0.7,1.4-1.5c0-0.9-0.6-1.5-1.4-1.5c-0.8,0-1.4,0.7-1.4,1.5
			C473.4,219.1,474,219.8,474.8,219.8z"/>
		<path class="st2" d="M469.8,223.2c-0.9,0.9-1.5,4-0.3,5.3c1.2,1.3,4.8-0.1,5.7-1c0.9-0.9-1.3-1.1-2.5-2.4
			C471.5,223.8,470.7,222.3,469.8,223.2z"/>
		<path class="st1" d="M492.6,244.6c1-0.4,0.8-3.6-0.4-7.1c-1.2-3.5-3.1-6-4.1-5.6c-1,0.4-0.8,3.6,0.4,7.1
			C489.8,242.5,491.6,245,492.6,244.6z"/>
		<path class="st9" d="M554.7,246H343.2c-0.1,0-0.1,0-0.2-0.1c0-0.1-0.1-0.2-0.1-0.2s0-0.2,0.1-0.2c0-0.1,0.1-0.1,0.2-0.1h211.5
			c0.1,0,0.1,0,0.2,0.1c0,0.1,0.1,0.2,0.1,0.2s0,0.2-0.1,0.2C554.8,246,554.7,246,554.7,246z"/>
		<path class="st6" d="M392.5,129.6c-1.9,1.6-3.9,3.1-5.1,5.2c-0.9,1.6-1.3,3.5-1.6,5.3c-0.6,3.6-0.8,7.3-1.9,10.7
			c-1.1,3.4-3.2,6.7-6.4,8c-2,0.8-4.1,0.8-6.2,0.6c-5.2-0.4-10.4-1.4-15.1-3.8c-2.6-1.4-5.1-3.2-8-3.4c-0.6,0-1.2,0-1.8,0.1
			c2.5-8.5,7.8-15.7,14.9-20.3c7.1-4.6,15.5-6.3,23.6-4.9h0c0.1,0,0.2,0,0.3,0.1c1.2,0.2,2.3,0.5,3.5,0.9
			C390,128.6,391.2,129,392.5,129.6z"/>
	</g>
</g>
</svg>
