<svg width="500" height="410" viewBox="0 0 500 410" fill="none" xmlns="http://www.w3.org/2000/svg">
<g clip-path="url(#clip0_406_4)">
<path d="M104.323 327.814C108.124 317.869 108.675 308.84 105.553 307.647C102.431 306.453 96.8189 313.548 93.0178 323.492C89.2168 333.437 88.6663 342.466 91.7882 343.659C94.9101 344.853 100.522 337.758 104.323 327.814Z" fill="#2F2E41"/>
<path d="M101.091 360.943C104.502 339.925 90.2287 320.122 69.211 316.711C48.1933 313.3 28.3902 327.574 24.9795 348.591C21.5688 369.609 35.8421 389.412 56.8598 392.823C77.8775 396.234 97.6807 381.96 101.091 360.943Z" fill="#2F2E41"/>
<path d="M57.1792 385.024H45.4667V406.009H57.1792V385.024Z" fill="#2F2E41"/>
<path d="M80.6042 385.024H68.8917V406.009H80.6042V385.024Z" fill="#2F2E41"/>
<path d="M55.2271 409.913C60.6177 409.913 64.9876 408.274 64.9876 406.253C64.9876 404.231 60.6177 402.593 55.2271 402.593C49.8366 402.593 45.4667 404.231 45.4667 406.253C45.4667 408.274 49.8366 409.913 55.2271 409.913Z" fill="#2F2E41"/>
<path d="M78.6521 409.425C84.0427 409.425 88.4126 407.786 88.4126 405.765C88.4126 403.743 84.0427 402.105 78.6521 402.105C73.2616 402.105 68.8917 403.743 68.8917 405.765C68.8917 407.786 73.2616 409.425 78.6521 409.425Z" fill="#2F2E41"/>
<path d="M64.3985 358.177C71.6726 357.963 77.3961 351.893 77.1824 344.619C76.9686 337.345 70.8985 331.621 63.6244 331.835C56.3503 332.049 50.6268 338.119 50.8405 345.393C51.0543 352.667 57.1244 358.391 64.3985 358.177Z" fill="white"/>
<path d="M64.0115 349.399C66.4372 349.399 68.4037 347.432 68.4037 345.006C68.4037 342.581 66.4372 340.614 64.0115 340.614C61.5857 340.614 59.6193 342.581 59.6193 345.006C59.6193 347.432 61.5857 349.399 64.0115 349.399Z" fill="#3F3D56"/>
<path d="M25.637 318.913C22.524 304.971 32.4752 290.884 47.8635 287.448C63.2519 284.012 78.2503 292.528 81.3633 306.47C84.4763 320.411 74.2779 325.553 58.8895 328.989C43.5012 332.425 28.7501 332.854 25.637 318.913Z" fill="#48825D"/>
<path d="M37.0282 345.138C38.4604 342.119 31.8236 335.972 22.2043 331.41C12.585 326.848 3.62604 325.597 2.19381 328.617C0.761578 331.637 7.39847 337.783 17.0177 342.345C26.637 346.908 35.596 348.158 37.0282 345.138Z" fill="#2F2E41"/>
<path d="M44.098 368.675C44.098 372.449 53.8138 379.9 64.5949 379.9C75.376 379.9 85.4844 369.277 85.4844 365.503C85.4844 361.73 75.3759 366.235 64.5949 366.235C53.8138 366.235 44.098 364.902 44.098 368.675Z" fill="white"/>
<path d="M334.18 249.996L292.303 291.327L197.663 384.714L195.747 386.603L185.077 397.13L162.705 375.028L160.736 373.085L119.834 332.685H119.826L106.72 319.732L98.9764 312.078L75.9159 289.304L72.8011 286.224L36.0442 249.915C28.7418 242.616 22.5525 234.282 17.6748 225.181C17.2272 224.366 16.8063 223.543 16.3945 222.719C7.67778 205.34 3.94818 185.885 5.61978 166.515C7.29137 147.144 14.2988 128.616 25.8639 112.987C37.4291 97.3579 53.0995 85.24 71.1352 77.9786C89.171 70.7172 108.866 68.5965 128.034 71.8518H128.044C128.384 71.9055 128.715 71.9592 129.055 72.0308C132.651 72.6654 136.21 73.4932 139.717 74.5105C148.893 77.1631 157.663 81.0574 165.785 86.0854C166.635 86.6136 167.477 87.1507 168.31 87.6968C174.262 91.6305 179.802 96.1564 184.844 101.205L185.157 100.892L185.47 101.205C188.525 98.152 191.762 95.288 195.165 92.6293C195.908 92.0474 196.66 91.4745 197.412 90.9195C208.925 82.4307 222.049 76.3804 235.981 73.1387C249.912 69.8971 264.359 69.5323 278.437 72.0666C282.036 72.7009 285.598 73.5317 289.107 74.5553C290.28 74.8866 291.444 75.2446 292.598 75.6295C293.529 75.9339 294.461 76.2472 295.382 76.5874C303.059 79.3316 310.387 82.9671 317.216 87.4193C318.711 88.395 320.185 89.4155 321.639 90.4808C333.94 99.4228 344.156 110.925 351.585 124.195C359.014 137.465 363.478 152.187 364.67 167.348C365.862 182.509 363.753 197.748 358.49 212.016C353.226 226.284 344.933 239.241 334.18 249.996Z" fill="#EBF6F0"/>
<path opacity="0.15" d="M292.303 291.327L197.663 384.714L195.747 386.603L185.077 397.13L162.705 375.028L160.736 373.085L119.834 332.685C126.405 331.154 136.503 333.258 140.2 335.084C148.964 339.408 156.171 346.507 165.069 350.553C173.015 354.141 181.892 355.121 190.43 353.355C206.382 350.007 218.727 337.671 229.613 325.533C240.498 313.385 251.625 300.351 266.924 294.72C274.99 291.748 283.655 291.076 292.303 291.327Z" fill="#48825D"/>
<path d="M361.108 102.933C348.085 89.8732 331.874 80.4453 314.083 75.5847C312.902 75.2535 311.729 74.9581 310.538 74.6806C305.419 73.4575 300.215 72.6227 294.971 72.183C294.058 72.0935 293.145 72.0308 292.223 71.9861C287.622 71.6951 283.008 71.7131 278.41 72.0398C253.224 73.725 229.467 84.3433 211.413 101.984L211.091 101.662L210.769 101.984C198.973 90.4743 184.66 81.8682 168.963 76.847C168.077 76.5605 167.181 76.283 166.286 76.0234C154.197 72.517 141.585 71.1685 129.028 72.0398C128.679 72.0577 128.33 72.0845 127.99 72.1203C104.966 73.8857 83.1492 83.1278 65.8634 98.4391C64.2339 99.8714 62.6314 101.375 61.074 102.933C46.4403 117.594 36.3924 136.198 32.1574 156.475C27.9224 176.752 29.6835 197.823 37.2258 217.115C37.5392 217.957 37.8793 218.789 38.2373 219.622C43.5646 232.325 51.3221 243.865 61.074 253.595L95.9149 287.988L98.6543 290.7L174.047 365.118L175.99 367.043L195.792 386.594L211.091 401.696L361.108 253.586C381.057 233.593 392.261 206.503 392.261 178.259C392.261 150.016 381.057 122.926 361.108 102.933ZM359.219 251.679L211.091 397.918L197.708 384.705L178.327 365.575L176.384 363.659L102.459 290.674L99.7641 288.015L62.9715 251.688C53.5266 242.267 45.9992 231.104 40.8066 218.816C40.4486 217.984 40.1081 217.151 39.7951 216.319C32.3945 197.495 30.6454 176.922 34.762 157.119C38.8786 137.317 48.6821 119.145 62.9715 104.831C64.6369 103.166 66.3407 101.572 68.083 100.05H68.0922C84.7222 85.4976 105.581 76.6619 127.605 74.8417C130.532 74.5911 133.462 74.4657 136.396 74.4657C137.497 74.4657 138.589 74.4836 139.69 74.5195C148.686 74.7964 157.608 76.2409 166.232 78.8164C167.119 79.076 168.005 79.3535 168.882 79.6489C178.212 82.6898 187.055 87.0584 195.138 92.6203C200.401 96.2289 205.319 100.317 209.829 104.831L210.778 105.78L211.091 105.466L211.404 105.78L212.353 104.831C222.383 94.7904 234.369 86.9187 247.568 81.7044C260.767 76.4901 274.897 74.0445 289.08 74.5195C290.217 74.5553 291.354 74.609 292.491 74.6895C293.404 74.7433 294.317 74.8059 295.222 74.8955C300.992 75.413 306.709 76.4161 312.311 77.8944C313.51 78.1987 314.701 78.53 315.882 78.897C333.058 84.0909 348.594 93.6483 360.974 106.637C373.354 119.625 382.157 135.601 386.522 153.005C390.887 170.41 390.667 188.648 385.881 205.942C381.096 223.236 371.91 238.994 359.219 251.679Z" fill="#2CBE66"/>
<path d="M227.888 358.829C232.057 360.295 236.534 360.662 240.887 359.895C245.24 359.128 249.321 357.253 252.739 354.451C261.444 347.145 264.173 335.109 266.393 323.964L272.961 291L259.21 300.468C249.322 307.277 239.21 314.304 232.364 324.167C225.517 334.029 222.528 347.492 228.029 358.164L227.888 358.829Z" fill="#48825D"/>
<path d="M229.063 398.739C227.672 388.602 226.241 378.334 227.217 368.088C228.084 358.988 230.86 350.1 236.512 342.813C239.512 338.952 243.163 335.644 247.299 333.037C248.378 332.356 249.371 334.066 248.297 334.744C241.139 339.268 235.603 345.948 232.486 353.821C229.044 362.576 228.491 372.12 229.084 381.421C229.443 387.046 230.203 392.633 230.969 398.214C231.03 398.466 230.992 398.732 230.864 398.958C230.736 399.183 230.527 399.352 230.279 399.429C230.026 399.497 229.757 399.463 229.529 399.334C229.302 399.205 229.134 398.991 229.063 398.739H229.063Z" fill="#8E631E"/>
<path d="M242.468 380.801C244.257 383.518 246.715 385.73 249.606 387.222C252.497 388.714 255.724 389.437 258.975 389.32C267.331 388.923 274.297 383.091 280.568 377.555L299.116 361.178L286.84 360.591C278.012 360.168 268.956 359.774 260.548 362.497C252.14 365.219 244.385 371.771 242.848 380.474L242.468 380.801Z" fill="#48825D"/>
<path d="M225.13 404.567C231.829 392.714 239.599 379.541 253.482 375.33C257.342 374.164 261.39 373.746 265.408 374.099C266.674 374.208 266.357 376.16 265.094 376.051C258.36 375.492 251.639 377.27 246.063 381.086C240.697 384.738 236.519 389.816 232.982 395.201C230.816 398.499 228.876 401.938 226.936 405.372C226.315 406.469 224.503 405.677 225.13 404.567H225.13Z" fill="#8E631E"/>
<path d="M89.64 106.634C110.933 106.634 128.194 89.3731 128.194 68.0805C128.194 46.7878 110.933 29.5267 89.64 29.5267C68.3473 29.5267 51.0862 46.7878 51.0862 68.0805C51.0862 89.3731 68.3473 106.634 89.64 106.634Z" fill="#2F2E41"/>
<path d="M83.7837 98.3376H72.0712V119.323H83.7837V98.3376Z" fill="#2F2E41"/>
<path d="M107.209 98.3376H95.4962V119.323H107.209V98.3376Z" fill="#2F2E41"/>
<path d="M81.8316 123.227C87.2222 123.227 91.5921 121.588 91.5921 119.567C91.5921 117.545 87.2222 115.906 81.8316 115.906C76.4411 115.906 72.0712 117.545 72.0712 119.567C72.0712 121.588 76.4411 123.227 81.8316 123.227Z" fill="#2F2E41"/>
<path d="M105.257 122.739C110.647 122.739 115.017 121.1 115.017 119.079C115.017 117.057 110.647 115.419 105.257 115.419C99.8661 115.419 95.4962 117.057 95.4962 119.079C95.4962 121.1 99.8661 122.739 105.257 122.739Z" fill="#2F2E41"/>
<path d="M90.6161 71.4965C97.8933 71.4965 103.793 65.5972 103.793 58.3199C103.793 51.0427 97.8933 45.1433 90.6161 45.1433C83.3388 45.1433 77.4395 51.0427 77.4395 58.3199C77.4395 65.5972 83.3388 71.4965 90.6161 71.4965Z" fill="white"/>
<path d="M98.206 64.1209C99.9145 62.4132 99.9053 59.634 98.1855 57.9134C96.4656 56.1928 93.6865 56.1823 91.978 57.8901C90.2695 59.5978 90.2787 62.377 91.9985 64.0976C93.7183 65.8182 96.4975 65.8286 98.206 64.1209Z" fill="#3F3D56"/>
<path d="M52.2415 32.2266C49.1285 18.285 59.0796 4.19758 74.4681 0.76148C89.8565 -2.67462 104.855 5.84183 107.968 19.7834C111.081 33.725 100.882 38.867 85.494 42.303C70.1057 45.7391 55.3546 46.1682 52.2415 32.2266Z" fill="#48825D"/>
<path d="M399.664 330.767C402.243 328.64 398.842 320.258 392.068 312.045C385.294 303.831 377.713 298.896 375.135 301.023C372.556 303.149 375.957 311.532 382.731 319.745C389.504 327.959 397.086 332.893 399.664 330.767Z" fill="#2F2E41"/>
<path d="M427.137 392.43C448.155 389.019 462.428 369.216 459.018 348.198C455.607 327.181 435.804 312.907 414.786 316.318C393.768 319.729 379.495 339.532 382.906 360.549C386.317 381.567 406.12 395.84 427.137 392.43Z" fill="#2F2E41"/>
<path d="M438.531 384.631H426.818V405.616H438.531V384.631Z" fill="#2F2E41"/>
<path d="M415.106 384.631H403.393V405.616H415.106V384.631Z" fill="#2F2E41"/>
<path d="M428.77 409.52C434.161 409.52 438.53 407.881 438.53 405.86C438.53 403.838 434.161 402.2 428.77 402.2C423.379 402.2 419.01 403.838 419.01 405.86C419.01 407.881 423.379 409.52 428.77 409.52Z" fill="#2F2E41"/>
<path d="M405.345 409.032C410.736 409.032 415.106 407.393 415.106 405.372C415.106 403.35 410.736 401.712 405.345 401.712C399.955 401.712 395.585 403.35 395.585 405.372C395.585 407.393 399.955 409.032 405.345 409.032Z" fill="#2F2E41"/>
<path d="M434.46 333.803C422.305 323.76 415.55 314.551 424.649 303.539C433.748 292.527 450.978 291.742 463.133 301.785C475.287 311.829 477.764 328.898 468.665 339.91C459.566 350.922 446.615 343.847 434.46 333.803Z" fill="#48825D"/>
<path d="M408.019 347.539C415.293 347.325 421.017 341.255 420.803 333.981C420.589 326.707 414.519 320.983 407.245 321.197C399.971 321.411 394.248 327.481 394.461 334.755C394.675 342.029 400.745 347.752 408.019 347.539Z" fill="white"/>
<path d="M403.001 335.496C405.427 335.496 407.393 333.53 407.393 331.104C407.393 328.678 405.427 326.712 403.001 326.712C400.575 326.712 398.609 328.678 398.609 331.104C398.609 333.53 400.575 335.496 403.001 335.496Z" fill="#3F3D56"/>
<path d="M387.716 345.22C385.047 347.889 383.161 356.539 386.914 360.293C390.667 364.046 401.698 360.053 404.366 357.385C407.034 354.717 400.329 354.383 396.576 350.63C392.823 346.877 390.384 342.552 387.716 345.22Z" fill="white"/>
<path d="M457.558 405.93C460.68 404.737 460.13 395.708 456.329 385.763C452.528 375.819 446.916 368.724 443.794 369.917C440.672 371.111 441.222 380.14 445.023 390.084C448.824 400.029 454.436 407.124 457.558 405.93Z" fill="#2F2E41"/>
<path d="M647.299 410H0.701299C0.515303 410 0.336924 409.895 0.205405 409.707C0.0738861 409.52 0 409.265 0 409C0 408.735 0.0738861 408.48 0.205405 408.293C0.336924 408.105 0.515303 408 0.701299 408H647.299C647.485 408 647.663 408.105 647.795 408.293C647.926 408.48 648 408.735 648 409C648 409.265 647.926 409.52 647.795 409.707C647.663 409.895 647.485 410 647.299 410Z" fill="#CCCCCC"/>
<path opacity="0.15" d="M151.22 78.5749C145.473 83.1135 139.305 87.303 135.572 93.5068C132.824 98.0902 131.633 103.417 130.747 108.68C129.028 118.921 128.294 129.413 124.928 139.233C121.571 149.054 115.018 158.435 105.305 162.097C99.2806 164.362 92.6383 164.236 86.2198 163.798C70.3839 162.723 54.4403 159.886 40.1889 152.912C32.2217 149.009 24.4958 143.745 15.6427 143.163C13.841 143.047 12.0319 143.147 10.2536 143.459C17.9785 119.345 34.1432 98.8268 55.7794 85.6727C77.4156 72.5187 103.071 67.6114 128.034 71.852H128.044C128.384 71.9057 128.715 71.9594 129.055 72.031C132.651 72.6655 136.21 73.4933 139.717 74.5107C143.627 75.6417 147.468 76.9987 151.22 78.5749Z" fill="#48825D"/>
</g>
<defs>
<clipPath id="clip0_406_4">
<rect width="500" height="410" fill="white"/>
</clipPath>
</defs>
</svg>
